<svg preserveAspectRatio="none" width="100%" height="100%" overflow="visible" style="display: block;" viewBox="0 0 64.6366 89.5951" fill="none" xmlns="http://www.w3.org/2000/svg">
<g id="Group 5">
<path id="Vector 2" d="M58.8768 89.5951H2.55986C1.14609 89.5951 0 88.449 0 87.0352V5.11971C0 3.70594 1.14609 2.55985 2.55986 2.55985H6.28329H42.104C42.8533 2.55985 43.565 2.88817 44.0514 3.45822L60.8242 23.1173C61.2195 23.5806 61.4366 24.1697 61.4366 24.7788V87.0352C61.4366 88.449 60.2906 89.5951 58.8768 89.5951Z" fill="var(--fill-0, #D9D9D9)"/>
<g id="Vector 4" filter="url(#filter0_f_0_87)">
<path d="M39.678 23.0387V5.11972L59.5169 25.5986H42.2378C40.8241 25.5986 39.678 24.4525 39.678 23.0387Z" fill="var(--fill-0, #616161)" fill-opacity="0.58"/>
</g>
<path id="Vector 3" d="M42.2378 21.7588V2.55986L60.1568 24.3187H44.7976C43.3839 24.3187 42.2378 23.1726 42.2378 21.7588Z" fill="var(--fill-0, #D9D9D9)"/>
</g>
<defs>
<filter id="filter0_f_0_87" x="34.5583" y="0" width="30.0784" height="30.7183" filterUnits="userSpaceOnUse" color-interpolation-filters="sRGB">
<feFlood flood-opacity="0" result="BackgroundImageFix"/>
<feBlend mode="normal" in="SourceGraphic" in2="BackgroundImageFix" result="shape"/>
<feGaussianBlur stdDeviation="2.55986" result="effect1_foregroundBlur_0_87"/>
</filter>
</defs>
</svg>
