<svg xmlns="http://www.w3.org/2000/svg" viewBox="0 0 100 100" fill="none">
  <path d="M 100.000 50.000 L 99.994 61.348 L 99.976 64.972 L 99.946 67.605 L 99.904 69.747 L 99.849 71.582 L 99.783 73.205 L 99.704 74.668 L 99.613 76.005 L 99.510 77.241 L 99.395 78.392 L 99.267 79.471 L 99.127 80.486 L 98.975 81.446 L 98.810 82.357 L 98.632 83.223 L 98.441 84.049 L 98.238 84.838 L 98.021 85.593 L 97.792 86.317 L 97.549 87.010 L 97.293 87.677 L 97.023 88.317 L 96.739 88.932 L 96.442 89.524 L 96.130 90.094 L 95.804 90.643 L 95.463 91.170 L 95.107 91.679 L 94.736 92.168 L 94.349 92.639 L 93.947 93.092 L 93.528 93.528 L 93.092 93.947 L 92.639 94.349 L 92.168 94.736 L 91.679 95.107 L 91.170 95.463 L 90.643 95.804 L 90.094 96.130 L 89.524 96.442 L 88.932 96.739 L 88.317 97.023 L 87.677 97.293 L 87.010 97.549 L 86.317 97.792 L 85.593 98.021 L 84.838 98.238 L 84.049 98.441 L 83.223 98.632 L 82.357 98.810 L 81.446 98.975 L 80.486 99.127 L 79.471 99.267 L 78.392 99.395 L 77.241 99.510 L 76.005 99.613 L 74.668 99.704 L 73.205 99.783 L 71.582 99.849 L 69.747 99.904 L 67.605 99.946 L 64.972 99.976 L 61.348 99.994 L 50.000 100.000 L 38.652 99.994 L 35.028 99.976 L 32.395 99.946 L 30.253 99.904 L 28.418 99.849 L 26.795 99.783 L 25.332 99.704 L 23.995 99.613 L 22.759 99.510 L 21.608 99.395 L 20.529 99.267 L 19.514 99.127 L 18.554 98.975 L 17.643 98.810 L 16.777 98.632 L 15.951 98.441 L 15.162 98.238 L 14.407 98.021 L 13.683 97.792 L 12.990 97.549 L 12.323 97.293 L 11.683 97.023 L 11.068 96.739 L 10.476 96.442 L 9.906 96.130 L 9.357 95.804 L 8.830 95.463 L 8.321 95.107 L 7.832 94.736 L 7.361 94.349 L 6.908 93.947 L 6.472 93.528 L 6.053 93.092 L 5.651 92.639 L 5.264 92.168 L 4.893 91.679 L 4.537 91.170 L 4.196 90.643 L 3.870 90.094 L 3.558 89.524 L 3.261 88.932 L 2.977 88.317 L 2.707 87.677 L 2.451 87.010 L 2.208 86.317 L 1.979 85.593 L 1.762 84.838 L 1.559 84.049 L 1.368 83.223 L 1.190 82.357 L 1.025 81.446 L 0.873 80.486 L 0.733 79.471 L 0.605 78.392 L 0.490 77.241 L 0.387 76.005 L 0.296 74.668 L 0.217 73.205 L 0.151 71.582 L 0.096 69.747 L 0.054 67.605 L 0.024 64.972 L 0.006 61.348 L 0.000 50.000 L 0.006 38.652 L 0.024 35.028 L 0.054 32.395 L 0.096 30.253 L 0.151 28.418 L 0.217 26.795 L 0.296 25.332 L 0.387 23.995 L 0.490 22.759 L 0.605 21.608 L 0.733 20.529 L 0.873 19.514 L 1.025 18.554 L 1.190 17.643 L 1.368 16.777 L 1.559 15.951 L 1.762 15.162 L 1.979 14.407 L 2.208 13.683 L 2.451 12.990 L 2.707 12.323 L 2.977 11.683 L 3.261 11.068 L 3.558 10.476 L 3.870 9.906 L 4.196 9.357 L 4.537 8.830 L 4.893 8.321 L 5.264 7.832 L 5.651 7.361 L 6.053 6.908 L 6.472 6.472 L 6.908 6.053 L 7.361 5.651 L 7.832 5.264 L 8.321 4.893 L 8.830 4.537 L 9.357 4.196 L 9.906 3.870 L 10.476 3.558 L 11.068 3.261 L 11.683 2.977 L 12.323 2.707 L 12.990 2.451 L 13.683 2.208 L 14.407 1.979 L 15.162 1.762 L 15.951 1.559 L 16.777 1.368 L 17.643 1.190 L 18.554 1.025 L 19.514 0.873 L 20.529 0.733 L 21.608 0.605 L 22.759 0.490 L 23.995 0.387 L 25.332 0.296 L 26.795 0.217 L 28.418 0.151 L 30.253 0.096 L 32.395 0.054 L 35.028 0.024 L 38.652 0.006 L 50.000 0.000 L 61.348 0.006 L 64.972 0.024 L 67.605 0.054 L 69.747 0.096 L 71.582 0.151 L 73.205 0.217 L 74.668 0.296 L 76.005 0.387 L 77.241 0.490 L 78.392 0.605 L 79.471 0.733 L 80.486 0.873 L 81.446 1.025 L 82.357 1.190 L 83.223 1.368 L 84.049 1.559 L 84.838 1.762 L 85.593 1.979 L 86.317 2.208 L 87.010 2.451 L 87.677 2.707 L 88.317 2.977 L 88.932 3.261 L 89.524 3.558 L 90.094 3.870 L 90.643 4.196 L 91.170 4.537 L 91.679 4.893 L 92.168 5.264 L 92.639 5.651 L 93.092 6.053 L 93.528 6.472 L 93.947 6.908 L 94.349 7.361 L 94.736 7.832 L 95.107 8.321 L 95.463 8.830 L 95.804 9.357 L 96.130 9.906 L 96.442 10.476 L 96.739 11.068 L 97.023 11.683 L 97.293 12.323 L 97.549 12.990 L 97.792 13.683 L 98.021 14.407 L 98.238 15.162 L 98.441 15.951 L 98.632 16.777 L 98.810 17.643 L 98.975 18.554 L 99.127 19.514 L 99.267 20.529 L 99.395 21.608 L 99.510 22.759 L 99.613 23.995 L 99.704 25.332 L 99.783 26.795 L 99.849 28.418 L 99.904 30.253 L 99.946 32.395 L 99.976 35.028 L 99.994 38.652 Z" fill="white"/>
</svg>
